<svg xmlns="http://www.w3.org/2000/svg" viewBox="0 0 47.39 102.62"><defs><style>.cls-1{fill:#fff;}.cls-2{fill:#66bc39;}</style></defs><g id="Layer_2" data-name="Layer 2"><g id="Layer_1-2" data-name="Layer 1"><ellipse class="cls-1" cx="17.17" cy="13.47" rx="3.12" ry="4.85" transform="translate(-1.69 2.49) rotate(-7.9)"/><ellipse class="cls-1" cx="27.58" cy="9.28" rx="5.03" ry="3.64" transform="translate(14.96 35.5) rotate(-82.91)"/><ellipse class="cls-1" cx="40.03" cy="7.99" rx="8.02" ry="5.78" transform="translate(27.16 46.72) rotate(-82.91)"/><path class="cls-2" d="M41.88,21.47C39,20,36.32,20.1,32.08,20.33a37.92,37.92,0,0,0-9.63,1.51c-3,.9-9.41,2.84-14.42,8.4C.47,38.65,1.38,49.94,1.79,55.11,2.33,62,4.48,67.37,4.88,67.29S3.5,62.18,5,56.17a22.92,22.92,0,0,1,7.47-11.46,26.45,26.45,0,0,1,13.35-5.83c.9-.12,3.55-.39,8.18-1,1.8-.23,2.72-.35,3.31-.45,4.68-.86,7-1.29,8.56-3.15,1.89-2.3,1.83-5.92.62-8.47A9.58,9.58,0,0,0,41.88,21.47Z"/><ellipse class="cls-1" cx="2.71" cy="26.14" rx="2.41" ry="3.97" transform="translate(-10.09 3.19) rotate(-23.23)"/><ellipse class="cls-1" cx="8.92" cy="19.38" rx="3.04" ry="4.5" transform="translate(-6.69 4.84) rotate(-22.33)"/><path class="cls-1" d="M32.77,50.42c-2.45,1.9-8.47,6.57-9,13-.39,4.68,2.5,5.85,3,11,.54,5.69-2.38,10.65-5,14,4.28-2.79,9.21-7.09,10-13,.67-5.09-2.2-7.73-2-13,.14-4,2.06-9.53,10-16A28.35,28.35,0,0,0,32.77,50.42Z"/><path class="cls-1" d="M30.88,44.75a27.79,27.79,0,0,0-12.61,4.59C4.91,58.52,5.85,76.47,6,78.46c.22,3.21.86,12.54,8,19,1.77,1.6,7,6.35,12.44,4.86,5.19-1.43,9.07-8.19,8.53-16.6-1.52,5.2-5.12,9-9.08,9.32-5.64.51-9.5-6.06-11-8.66-5.17-8.82-2.77-18.45-2.32-20.23C16,52.19,28.71,45.8,30.88,44.75Z"/></g></g></svg>