<svg xmlns="http://www.w3.org/2000/svg" viewBox="0 0 190.17 111.52"><defs><style>.cls-1{stroke:#000;stroke-miterlimit:10;}.cls-2{font-size:34px;font-family:Arvo-Bold, Arvo;font-weight:700;letter-spacing:0.01em;}.cls-3{font-family:MicrosoftSansSerif, Microsoft Sans Serif;font-weight:400;}.cls-4{font-size:36px;letter-spacing:0.01em;}.cls-5{fill:#66bc39;}</style></defs><g id="Layer_2" data-name="Layer 2"><g id="Layer_1-2" data-name="Layer 1"><ellipse class="cls-1" cx="17.67" cy="13.97" rx="3.12" ry="4.85" transform="translate(-1.75 2.56) rotate(-7.9)"/><ellipse class="cls-1" cx="28.08" cy="9.78" rx="5.03" ry="3.64" transform="translate(14.9 36.44) rotate(-82.91)"/><ellipse class="cls-1" cx="40.53" cy="8.49" rx="8.02" ry="5.78" transform="translate(27.1 47.66) rotate(-82.91)"/><text class="cls-2" transform="translate(46.71 67.52)">Carbon<tspan class="cls-3" x="134.09" y="0"> </tspan><tspan class="cls-4"><tspan x="18.17" y="35">Print</tspan></tspan></text><path class="cls-5" d="M42.38,22c-2.9-1.48-5.56-1.37-9.8-1.14A37.92,37.92,0,0,0,23,22.34c-3,.9-9.41,2.84-14.42,8.4C1,39.15,1.88,50.44,2.29,55.61,2.83,62.48,5,67.87,5.38,67.79S4,62.68,5.54,56.67A22.92,22.92,0,0,1,13,45.21a26.45,26.45,0,0,1,13.35-5.83c.9-.12,3.55-.39,8.18-1,1.8-.23,2.72-.35,3.31-.45,4.68-.86,7-1.29,8.56-3.15,1.89-2.3,1.83-5.92.62-8.47A9.58,9.58,0,0,0,42.38,22Z"/><ellipse class="cls-1" cx="3.21" cy="26.64" rx="2.41" ry="3.97" transform="translate(-10.25 3.43) rotate(-23.23)"/><ellipse class="cls-1" cx="9.42" cy="19.88" rx="3.04" ry="4.5" transform="translate(-6.85 5.07) rotate(-22.33)"/><path d="M33.27,50.92c-2.45,1.9-8.47,6.57-9,13-.39,4.68,2.5,5.85,3,11,.54,5.69-2.38,10.65-5,14,4.28-2.79,9.21-7.09,10-13,.67-5.09-2.2-7.73-2-13,.14-4,2.06-9.53,10-16A28.35,28.35,0,0,0,33.27,50.92Z"/><path d="M31.38,45.25a27.79,27.79,0,0,0-12.61,4.59C5.41,59,6.35,77,6.48,79c.22,3.21.86,12.54,8,19,1.77,1.6,7,6.35,12.44,4.86,5.19-1.43,9.07-8.19,8.53-16.6-1.52,5.2-5.12,9-9.08,9.32-5.64.51-9.5-6.06-11-8.66C10.16,78.07,12.56,68.44,13,66.66,16.5,52.69,29.21,46.3,31.38,45.25Z"/></g></g></svg>